<svg width="20" height="20" viewBox="0 0 20 20" fill="none" xmlns="http://www.w3.org/2000/svg">
<path d="M10.866 18.5703V10.6031H13.8955L14.3479 7.4949H10.866V5.50802C10.866 5.00966 10.9775 4.64245 11.2004 4.40638C11.4627 4.13097 11.9348 3.99327 12.6168 3.99327H14.466V1.21949C14.2561 1.19326 13.9283 1.16704 13.4824 1.14081C12.9053 1.11458 12.3283 1.10146 11.7512 1.10146C10.8594 1.10146 10.0725 1.25884 9.39057 1.57359C8.7086 1.88835 8.18073 2.35392 7.80696 2.97031C7.43319 3.58671 7.2463 4.32769 7.2463 5.19326V7.4949H4.2168V10.6031H7.2463V18.5703H10.866Z" fill="#B5FF08"/>
</svg>
