<svg width="21" height="20" viewBox="0 0 21 20" fill="none" xmlns="http://www.w3.org/2000/svg">
<path d="M6.95516 0.824219C5.966 0.824219 5.04843 1.07151 4.20244 1.56608C3.38249 2.04765 2.73173 2.69841 2.25017 3.51836C1.75559 4.36435 1.5083 5.28192 1.5083 6.27107V13.3774C1.5083 14.3665 1.75559 15.2841 2.25017 16.1301C2.73173 16.95 3.38249 17.6008 4.20244 18.0824C5.04843 18.5769 5.966 18.8242 6.95516 18.8242H14.0614C15.0506 18.8242 15.9682 18.5769 16.8142 18.0824C17.6341 17.6008 18.2849 16.95 18.7664 16.1301C19.261 15.2841 19.5083 14.3665 19.5083 13.3774V6.27107C19.5083 5.28192 19.261 4.36435 18.7664 3.51836C18.2849 2.69841 17.6341 2.04765 16.8142 1.56608C15.9682 1.07151 15.0506 0.824219 14.0614 0.824219H6.95516ZM15.2523 4.14309C15.5126 4.14309 15.7339 4.2342 15.9161 4.41641C16.0983 4.59862 16.1894 4.81988 16.1894 5.08018C16.1894 5.34049 16.0983 5.565 15.9161 5.75372C15.7339 5.94244 15.5126 6.0368 15.2523 6.0368C14.992 6.0368 14.7675 5.94244 14.5788 5.75372C14.3901 5.565 14.2957 5.34049 14.2957 5.08018C14.2957 4.81988 14.3901 4.59862 14.5788 4.41641C14.7675 4.2342 14.992 4.14309 15.2523 4.14309ZM10.5083 5.08018C11.3673 5.08018 12.1612 5.29168 12.8901 5.71467C13.6189 6.13767 14.1949 6.71359 14.6178 7.44244C15.0408 8.17129 15.2523 8.96522 15.2523 9.82422C15.2523 10.6832 15.0408 11.4739 14.6178 12.1962C14.1949 12.9186 13.6189 13.4912 12.8901 13.9142C12.1612 14.3372 11.3673 14.5487 10.5083 14.5487C9.6493 14.5487 8.85863 14.3372 8.13628 13.9142C7.41394 13.4912 6.84127 12.9186 6.41828 12.1962C5.99529 11.4739 5.78379 10.6832 5.78379 9.82422C5.78379 8.96522 5.99529 8.17129 6.41828 7.44244C6.84127 6.71359 7.41394 6.13767 8.13628 5.71467C8.85863 5.29168 9.6493 5.08018 10.5083 5.08018ZM10.5083 6.50535C10.1048 6.50535 9.68184 6.58995 9.23932 6.75914C8.80982 6.95437 8.44865 7.19841 8.15581 7.49125C7.86296 7.78409 7.62544 8.13875 7.44322 8.55524C7.27403 8.99775 7.18943 9.42075 7.18943 9.82422C7.18943 10.2277 7.27403 10.6507 7.44322 11.0932C7.63845 11.5227 7.87923 11.8806 8.16557 12.167C8.4519 12.4533 8.80982 12.6941 9.23932 12.8893C9.68184 13.0585 10.1048 13.1431 10.5083 13.1431C10.9118 13.1431 11.3348 13.0585 11.7773 12.8893C12.1938 12.7071 12.5484 12.4696 12.8413 12.1767C13.1341 11.8839 13.3781 11.5227 13.5734 11.0932C13.7426 10.6507 13.8272 10.2277 13.8272 9.82422C13.8272 9.42075 13.7426 8.99775 13.5734 8.55524C13.4042 8.13875 13.1667 7.77758 12.8608 7.47172C12.5549 7.16587 12.1938 6.92834 11.7773 6.75914C11.3348 6.58995 10.9118 6.50535 10.5083 6.50535Z" fill="#B5FF08"/>
</svg>
