<svg width="21" height="20" viewBox="0 0 21 20" fill="none" xmlns="http://www.w3.org/2000/svg">
<path d="M13.5321 2.82422H14.3781L14.6841 2.87672L14.8101 2.91172C15.0141 2.95839 15.1581 2.99922 15.2421 3.03422C15.4221 3.10422 15.5901 3.17714 15.7461 3.25297C15.9021 3.3288 16.0401 3.41339 16.1601 3.50672C16.2441 3.56505 16.3581 3.65255 16.5021 3.76922C16.5981 3.86255 16.7541 3.89172 16.9701 3.85672L17.6541 3.66422L17.8161 3.61172C18.0681 3.51839 18.2541 3.44255 18.3741 3.38422C18.6141 3.27922 18.7581 3.20922 18.8061 3.17422L18.8961 3.13922V3.12172H18.9141L18.9321 3.10422H18.9501L18.9861 3.06922H19.0041V3.12172L18.9861 3.13922V3.17422H18.9681V3.19172L18.9501 3.22672C18.9501 3.25005 18.9471 3.27047 18.9411 3.28797C18.9351 3.30547 18.8871 3.40172 18.7971 3.57672C18.7071 3.75172 18.5841 3.94422 18.4281 4.15422C18.3321 4.27089 18.2001 4.41089 18.0321 4.57422C17.9481 4.63255 17.8731 4.6938 17.8071 4.75797C17.7411 4.82214 17.6901 4.86005 17.6541 4.87172L17.5641 4.94172H17.5461V4.95922H17.5281L17.5101 4.97672H17.4921V4.99422H17.4741V5.01172H17.4561H17.5461L17.9961 4.90672C18.3081 4.84839 18.5961 4.77839 18.8601 4.69672L19.3101 4.55672L19.3821 4.52172H19.4001L19.4181 4.50422H19.4361L19.4721 4.48672H19.5081V4.52172H19.4901V4.53922H19.4721V4.55672H19.4541V4.57422H19.4361V4.59172C19.4361 4.60339 19.3641 4.69672 19.2201 4.87172L19.1121 5.01172C19.0521 5.09339 19.0161 5.13422 19.0041 5.13422C18.9921 5.13422 18.9861 5.14005 18.9861 5.15172L18.9681 5.16922C18.9441 5.20422 18.8241 5.32089 18.6081 5.51922C18.4641 5.67089 18.2601 5.85172 17.9961 6.06172C17.7921 6.22505 17.6901 6.41755 17.6901 6.63922C17.6901 6.76755 17.6781 6.99505 17.6541 7.32172V7.42672C17.6421 7.59005 17.6061 7.85255 17.5461 8.21422L17.5281 8.37172C17.4681 8.72172 17.3781 9.09797 17.2581 9.50047C17.1381 9.90297 16.9821 10.3201 16.7901 10.7517C16.6461 11.1134 16.4601 11.4751 16.2321 11.8367C16.0641 12.1401 15.8901 12.4142 15.7101 12.6592L15.2061 13.2892C15.0501 13.4759 14.8401 13.6976 14.5761 13.9542L14.1441 14.3567L13.8381 14.6017C13.7301 14.6834 13.5681 14.8059 13.3521 14.9692L13.0641 15.1617C12.8721 15.2901 12.7341 15.3776 12.6501 15.4242L12.0021 15.7567C11.6901 15.9084 11.4141 16.0251 11.1741 16.1067C11.0301 16.1651 10.7961 16.2467 10.4721 16.3517L10.2561 16.4217C9.92006 16.5151 9.60806 16.5851 9.32006 16.6317C8.93606 16.7017 8.59406 16.7484 8.29406 16.7717L7.71806 16.8242H6.65606L6.51206 16.8067C6.40406 16.8067 6.33206 16.8009 6.29606 16.7892L5.61206 16.7192C5.24006 16.6609 4.93406 16.6084 4.69406 16.5617C4.57406 16.5384 4.32806 16.4626 3.95606 16.3342L3.70406 16.2642C3.17606 16.0776 2.80406 15.9317 2.58806 15.8267C2.25206 15.6634 2.05406 15.5701 1.99406 15.5467L1.88606 15.4767C1.82606 15.4417 1.77806 15.4126 1.74206 15.3892L1.59806 15.3017H1.58006L1.56206 15.2842H1.54406V15.2667H1.52606V15.2492H1.50806V15.2317H1.61606C1.64006 15.2434 1.70606 15.2492 1.81406 15.2492L2.01206 15.2667H2.69606C3.03206 15.2434 3.28406 15.2201 3.45206 15.1967C3.66806 15.1617 3.96806 15.0976 4.35206 15.0042C4.71206 14.9109 5.03006 14.8059 5.30606 14.6892L5.91806 14.4267C6.07406 14.3451 6.26006 14.2342 6.47606 14.0942L6.85406 13.8492V13.8317H6.87206L6.89006 13.8142H6.90806V13.7967L6.92606 13.7792L6.80006 13.7617C6.69206 13.7617 6.60806 13.7559 6.54806 13.7442C6.44006 13.7442 6.31406 13.7209 6.17006 13.6742C6.07406 13.6509 5.91806 13.6042 5.70206 13.5342L5.61206 13.4992C5.48006 13.4409 5.28206 13.3417 5.01806 13.2017L4.89206 13.1142C4.74806 13.0209 4.65206 12.9509 4.60406 12.9042L4.28006 12.5892C4.22006 12.5309 4.13006 12.4259 4.01006 12.2742L3.93806 12.1692C3.85406 12.0409 3.76406 11.8717 3.66806 11.6617L3.52406 11.3817V11.3642L3.50606 11.3467V11.3117H3.56006L3.74006 11.3467C3.81206 11.3584 3.99806 11.3642 4.29806 11.3642L4.56806 11.3467C4.70006 11.3467 4.78406 11.3409 4.82006 11.3292L5.03606 11.2942L5.07206 11.2767H5.10806V11.2592H5.12606L5.09006 11.2417H5.07206L5.03606 11.2242H4.96406C4.95206 11.2126 4.93406 11.2067 4.91006 11.2067L4.85606 11.1892C4.77206 11.1542 4.62206 11.0959 4.40606 11.0142C4.15406 10.8976 3.96806 10.8042 3.84806 10.7342C3.75206 10.6642 3.62006 10.5592 3.45206 10.4192C3.36806 10.3492 3.23606 10.2151 3.05606 10.0167L3.02006 9.98172C2.84006 9.76005 2.70806 9.55589 2.62406 9.36922C2.50406 9.14755 2.41406 8.92589 2.35406 8.70422C2.28206 8.42422 2.24006 8.20839 2.22806 8.05672L2.21006 7.74172H2.24606L2.26406 7.75922H2.28206L2.30006 7.77672L2.55206 7.88172C2.78006 7.97505 2.99006 8.03922 3.18206 8.07422L3.63206 8.16172H3.84806H3.83006V8.14422H3.81206V8.12672H3.79406L3.77606 8.10922H3.75806L3.59606 7.98672C3.53606 7.94005 3.44006 7.85255 3.30806 7.72422L3.02006 7.40922C2.97206 7.35089 2.91206 7.26922 2.84006 7.16422L2.75006 7.04172C2.69006 6.91339 2.61206 6.74422 2.51606 6.53422C2.42006 6.27755 2.36006 6.07922 2.33606 5.93922C2.28806 5.76422 2.26406 5.56589 2.26406 5.34422C2.25206 5.25089 2.25206 5.12839 2.26406 4.97672V4.83672C2.28806 4.69672 2.32406 4.53922 2.37206 4.36422L2.39006 4.31172C2.46206 4.09005 2.52806 3.92089 2.58806 3.80422L2.71406 3.50672L2.73206 3.48922V3.45422H2.76806V3.47172H2.78606V3.48922L2.80406 3.50672V3.52422L3.02006 3.75172C3.11606 3.85672 3.29006 4.03172 3.54206 4.27672C3.72206 4.45172 3.83606 4.55089 3.88406 4.57422C3.89606 4.57422 3.90806 4.58589 3.92006 4.60922L3.95606 4.64422C3.99206 4.67922 4.10006 4.76672 4.28006 4.90672C4.37606 4.98839 4.56206 5.12255 4.83806 5.30922L5.00006 5.41422C5.33606 5.62422 5.66606 5.81672 5.99006 5.99172C6.49406 6.22505 6.88406 6.39422 7.16006 6.49922L7.25006 6.53422C7.68206 6.67422 7.94606 6.75589 8.04206 6.77922C8.24606 6.84922 8.53406 6.91339 8.90606 6.97172C9.07406 7.00672 9.29006 7.04172 9.55406 7.07672L9.82406 7.11172L10.2381 7.14672H10.3461V7.09422L10.3101 6.90172C10.2861 6.73839 10.2741 6.55755 10.2741 6.35922C10.2741 6.10255 10.2951 5.88672 10.3371 5.71172C10.3791 5.53672 10.4361 5.34422 10.5081 5.13422C10.5801 4.92422 10.6521 4.75505 10.7241 4.62672C10.7721 4.54505 10.8681 4.4138 11.0121 4.23297C11.1561 4.05214 11.3121 3.88589 11.4801 3.73422C11.7201 3.54755 11.9361 3.40172 12.1281 3.29672C12.3441 3.18005 12.5661 3.08089 12.7941 2.99922C13.0221 2.91755 13.1961 2.87089 13.3161 2.85922L13.5321 2.82422Z" fill="#B5FF08"/>
</svg>
