<svg width="25" height="24" viewBox="0 0 25 24" fill="none" xmlns="http://www.w3.org/2000/svg">
<g clip-path="url(#clip0_1083_4554)">
<g clip-path="url(#clip1_1083_4554)">
<g clip-path="url(#clip2_1083_4554)">
<mask id="mask0_1083_4554" style="mask-type:luminance" maskUnits="userSpaceOnUse" x="0" y="0" width="25" height="24">
<path d="M24.1968 0H0.196777V24H24.1968V0Z" fill="white"/>
</mask>
<g mask="url(#mask0_1083_4554)">
<path d="M15.9486 15.9414L13.2871 21.5101C13.1073 21.8574 12.6745 22.0131 12.3268 21.8454C12.2429 21.7975 12.171 21.7496 12.111 21.6897L7.86454 17.2109C7.74466 17.0911 7.5888 17.0073 7.43295 16.9833L1.29827 16.1714C0.902635 16.1115 0.626893 15.7522 0.674848 15.357C0.674848 15.2612 0.710814 15.1774 0.746781 15.1055L3.69843 9.68058C3.77036 9.5249 3.79434 9.35724 3.77036 9.20153L2.63142 3.12988C2.5475 2.73469 2.81126 2.36344 3.1949 2.29159C3.27882 2.26764 3.36274 2.26764 3.45865 2.29159L9.525 3.4173C9.68085 3.44125 9.84872 3.4173 9.99258 3.33347L15.4115 0.38507C15.7592 0.193459 16.1908 0.325191 16.3826 0.672485C16.4186 0.744339 16.4426 0.828168 16.4546 0.911997L17.2458 7.02676C17.2578 7.18244 17.3417 7.33812 17.4616 7.4459L21.9335 11.6877C22.2212 11.9512 22.2332 12.4062 21.9574 12.6936C21.8855 12.7535 21.8136 12.8014 21.7416 12.8374L16.1668 15.484V15.4828C16.011 15.5427 15.8911 15.6624 15.8192 15.8181L15.9486 15.9414ZM16.8957 18.2408L18.5862 16.5306L23.6694 21.6083L21.967 23.2969L16.8718 18.2072L16.8957 18.2408Z" fill="#9481FF"/>
</g>
</g>
</g>
</g>
<defs>
<clipPath id="clip0_1083_4554">
<rect width="24" height="24" fill="white" transform="translate(0.196777)"/>
</clipPath>
<clipPath id="clip1_1083_4554">
<rect width="24" height="24" fill="white" transform="translate(0.196777)"/>
</clipPath>
<clipPath id="clip2_1083_4554">
<rect width="24" height="24" fill="white" transform="translate(0.196777)"/>
</clipPath>
</defs>
</svg>
