<svg width="25" height="24" viewBox="0 0 25 24" fill="none" xmlns="http://www.w3.org/2000/svg">
<path d="M21.562 20.625V17.875C21.562 16.4163 21.0563 15.0174 20.1561 13.9859C19.256 12.9545 18.0351 12.375 16.762 12.375H8.36201C7.08897 12.375 5.86807 12.9545 4.9679 13.9859C4.06772 15.0174 3.56201 16.4163 3.56201 17.875V20.625" fill="#8F73FF"/>
<path d="M12.5617 11.1C15.2127 11.1 17.3617 8.95097 17.3617 6.3C17.3617 3.64903 15.2127 1.5 12.5617 1.5C9.91075 1.5 7.76172 3.64903 7.76172 6.3C7.76172 8.95097 9.91075 11.1 12.5617 11.1Z" fill="#8F73FF"/>
<circle cx="16.4995" cy="16.3125" r="1.6875" fill="#262626"/>
</svg>
