<svg width="25" height="24" viewBox="0 0 25 24" fill="none" xmlns="http://www.w3.org/2000/svg">
<path d="M21.4385 16.0508V7.94917C21.4381 7.59399 21.3455 7.24514 21.17 6.93764C20.9945 6.63013 20.7422 6.37478 20.4385 6.19718L13.4385 2.14635C13.1344 1.96859 12.7895 1.875 12.4385 1.875C12.0874 1.875 11.7425 1.96859 11.4385 2.14635L4.43848 6.19718C4.13474 6.37478 3.88246 6.63013 3.70694 6.93764C3.53142 7.24514 3.43884 7.59399 3.43848 7.94917V16.0508C3.43884 16.406 3.53142 16.7549 3.70694 17.0624C3.88246 17.3699 4.13474 17.6252 4.43848 17.8028L11.4385 21.8536C11.7425 22.0314 12.0874 22.125 12.4385 22.125C12.7895 22.125 13.1344 22.0314 13.4385 21.8536L20.4385 17.8028C20.7422 17.6252 20.9945 17.3699 21.17 17.0624C21.3455 16.7549 21.4381 16.406 21.4385 16.0508Z" fill="#8F73FF"/>
<path d="M14.8007 13.0502V10.9498C14.8006 10.8577 14.7763 10.7673 14.7302 10.6875C14.6841 10.6078 14.6179 10.5416 14.5382 10.4956L12.7007 9.44535C12.6209 9.39926 12.5303 9.375 12.4382 9.375C12.346 9.375 12.2555 9.39926 12.1757 9.44535L10.3382 10.4956C10.2585 10.5416 10.1922 10.6078 10.1462 10.6875C10.1001 10.7673 10.0758 10.8577 10.0757 10.9498V13.0502C10.0758 13.1423 10.1001 13.2327 10.1462 13.3125C10.1922 13.3922 10.2585 13.4584 10.3382 13.5044L12.1757 14.5546C12.2555 14.6007 12.346 14.625 12.4382 14.625C12.5303 14.625 12.6209 14.6007 12.7007 14.5546L14.5382 13.5044C14.6179 13.4584 14.6841 13.3922 14.7302 13.3125C14.7763 13.2327 14.8006 13.1423 14.8007 13.0502Z" fill="#262626"/>
</svg>
